<?xml version="1.0" encoding="iso-8859-1"?>
<!-- Generator: Adobe Illustrator 19.0.0, SVG Export Plug-In . SVG Version: 6.00 Build 0)  -->
<svg version="1.1" id="Layer_1" xmlns="http://www.w3.org/2000/svg" xmlns:xlink="http://www.w3.org/1999/xlink" x="0px" y="0px"
	 viewBox="0 0 503.891 503.891" style="enable-background:new 0 0 503.891 503.891;" xml:space="preserve">
<g transform="translate(1 1)">
	<g>
		<g>
			<path d="M386.625,160.704c-5.12-5.12-8.533-11.093-7.68-17.067c0-3.413,2.56-7.68,6.827-10.24c0.853,0,0.853,0,1.707-0.853
				l7.68-7.68c11.093-11.093,14.507-27.307,7.68-41.813c-6.827-14.507-21.333-22.187-36.693-21.333l-11.093,0.853
				c-5.973,0.853-11.093-0.853-15.36-5.12c-4.267-3.413-6.827-8.533-6.827-14.507v-6.827c0-16.213-9.387-29.867-24.747-34.987
				s-30.72-0.853-40.96,11.093c-8.533,6.827-24.747,6.827-32.427,0c-10.24-11.947-26.453-16.213-40.96-11.093
				c-15.36,5.12-24.747,18.773-24.747,34.987v6.827c0,5.12-2.56,10.24-6.827,14.507c-4.267,3.413-9.387,5.973-15.36,5.12
				l-11.093-0.853c-15.36-1.707-30.72,6.827-36.693,21.333c-5.973,14.507-3.413,30.72,7.68,41.813l7.68,7.68
				c0.853,0.853,1.707,1.707,2.56,1.707c3.413,0.853,5.12,3.413,5.973,6.827c1.707,5.973-1.707,12.8-8.533,19.627l-7.68,7.68
				c-11.093,11.093-14.507,27.307-7.68,41.813c6.827,14.507,21.333,22.187,36.693,21.333l11.093-0.853
				c5.973,0,11.947,1.707,16.213,5.973c0.929,1.162,1.792,2.324,2.56,3.503v254.204c0,4.267,2.56,6.827,5.973,7.68
				c0.853,0.853,1.707,0.853,2.56,0.853c2.56,0,5.12-0.853,6.827-2.56l70.827-87.04l69.973,85.333c2.56,2.56,5.973,3.413,9.387,2.56
				s5.973-4.267,5.973-7.68V237.73c0.518-0.662,1.082-1.307,1.707-1.932c4.267-3.413,9.387-5.973,15.36-5.12l11.093,0.853
				c15.36,1.707,29.867-6.827,36.693-21.333c5.973-14.507,3.413-30.72-7.68-41.813L386.625,160.704z M319.212,469.611l-61.44-75.093
				c-1.707-2.56-4.267-3.413-6.827-3.413s-5.12,1.707-6.827,3.413l-61.44,75.947v-178.28c0.131,0.103,0.263,0.204,0.396,0.306
				c1.693,1.578,4.057,3.103,6.431,3.894c13.653,6.827,30.72,4.267,43.52-6.827l0.853-0.853l0.853-2.56
				c0.16-0.213,0.333-0.42,0.519-0.62c0.372-0.4,0.795-0.773,1.264-1.12c0.234-0.173,0.48-0.34,0.737-0.5
				c3.08-1.92,7.72-2.88,12.84-2.88s9.76,1.44,12.84,3.24c1.027,0.6,1.88,1.24,2.52,1.88l1.707,2.56l0.853,0.853
				c12.8,11.093,30.72,13.653,45.227,6.827c2.56-0.853,4.267-1.707,5.973-3.413V469.611z M385.772,201.664
				c-2.56,6.827-9.387,12.8-19.627,11.947l-11.093-0.853c-10.24-0.853-20.48,3.413-28.16,10.24
				c-6.827,6.827-11.093,17.067-11.093,27.307v13.653c0,10.24-6.827,14.507-10.24,16.213c-2.523,1.442-5.811,2.416-9.47,2.494
				c-4.794-0.083-10.16-1.721-15.277-5.907l-1.707-1.707c-5.973-5.973-16.213-10.24-28.16-10.24s-22.187,3.413-28.16,10.24
				l-1.707,1.707c-7.68,5.973-17.067,7.68-24.747,4.267c-5.973-2.56-10.24-9.387-10.24-17.92v-12.8v-0.853
				c0-5.12-1.707-11.093-4.267-16.213c-0.576-1.152-1.447-2.104-2.475-2.834c-1.503-2.038-3.241-3.953-5.205-5.699
				c-7.68-7.68-18.773-11.093-29.013-10.24l-11.093,0.853c-10.24,0.853-17.067-5.973-19.627-11.947
				c-2.56-5.973-3.413-15.36,4.267-21.333l7.68-7.68c11.093-11.093,15.36-23.893,13.653-34.987
				c-1.707-7.68-6.827-14.507-14.507-18.773l-6.827-6.827c-7.68-7.68-6.827-17.067-4.267-23.04
				c3.413-6.827,9.387-12.8,19.627-11.947l11.947,0.853c10.24,0.853,20.48-2.56,28.16-9.387c7.68-6.827,11.947-17.067,11.947-27.307
				v-6.827c0-10.24,6.827-16.213,13.653-18.773c5.973-1.707,15.36-1.707,22.187,6.827l0.853,0.853c14.507,12.8,40.96,12.8,56.32,0
				l0.853-0.853c5.973-8.533,15.36-9.387,22.187-6.827c6.827,1.707,13.653,8.533,13.653,18.773v5.973
				c0,10.24,4.267,20.48,11.947,27.307c6.827,7.68,17.067,11.093,27.307,7.68l11.093-0.853c10.24-0.853,17.067,5.973,19.627,11.947
				c2.56,6.827,3.413,15.36-4.267,23.04l-6.827,6.827c-7.68,5.12-12.8,12.8-13.653,22.187c-0.853,11.093,3.413,22.187,12.8,30.72
				l7.68,7.68C389.185,186.304,388.332,195.691,385.772,201.664z"/>
			<path d="M250.945,305.771c-5.12,0-8.533,3.413-8.533,8.533v42.667c0,5.12,3.413,8.533,8.533,8.533s8.533-3.413,8.533-8.533
				v-42.667C259.479,309.184,256.065,305.771,250.945,305.771z"/>
			<path d="M325.185,118.891l-50.347-8.533l-16.213-41.813c-0.853-3.413-4.267-5.12-7.68-5.12s-5.973,1.707-7.68,5.12
				l-16.213,41.813l-50.347,8.533c-3.413,0.853-5.973,2.56-6.827,5.973c-1.707,2.56-0.853,5.973,1.707,8.533l33.28,33.28
				l-8.533,50.347c-0.853,3.413,0.853,6.827,3.413,8.533s6.827,1.707,9.387,0l41.813-24.747l41.813,24.747
				c0.853,0.853,2.56,0.853,4.267,0.853c1.707,0,3.413,0,5.12-0.853c2.56-1.707,4.267-5.12,3.413-8.533l-8.533-50.347l33.28-33.28
				c1.707-2.56,2.56-5.12,1.707-8.533C331.159,121.451,328.599,119.744,325.185,118.891z M281.665,156.437
				c-1.707,2.56-3.413,5.12-2.56,7.68l5.973,36.693l-29.867-17.92c-0.853-0.853-2.56-0.853-4.267-0.853s-3.413,0.853-4.267,1.707
				l-29.867,17.92l5.973-36.693c0-2.56-0.853-5.973-2.56-7.68l-24.747-24.747l38.4-6.827c3.413,0,5.973-2.56,6.827-5.12
				l10.24-26.453l10.24,26.453c1.707,2.56,4.267,4.267,6.827,5.12l38.4,5.973L281.665,156.437z"/>
		</g>
	</g>
</g>
<g>
</g>
<g>
</g>
<g>
</g>
<g>
</g>
<g>
</g>
<g>
</g>
<g>
</g>
<g>
</g>
<g>
</g>
<g>
</g>
<g>
</g>
<g>
</g>
<g>
</g>
<g>
</g>
<g>
</g>
</svg>
